<svg width="433" height="433" viewBox="0 0 433 433" fill="none" xmlns="http://www.w3.org/2000/svg">
<rect width="433" height="433" fill="#FFE812"/>
<path d="M220.667 99C144.083 99 82 147.951 82 208.333C82 247.372 107.955 281.627 146.997 300.969C144.873 308.295 133.348 348.093 132.889 351.221C132.889 351.221 132.613 353.571 134.135 354.467C135.656 355.361 137.445 354.667 137.445 354.667C141.808 354.057 188.036 321.585 196.037 315.947C204.031 317.079 212.261 317.667 220.667 317.667C297.251 317.667 359.333 268.717 359.333 208.333C359.333 147.951 297.251 99 220.667 99Z" fill="black"/>
<path d="M144 246.5C139.588 246.5 136 243.073 136 238.86V191.333H123.517C119.188 191.333 115.667 187.819 115.667 183.5C115.667 179.181 119.189 175.667 123.517 175.667H164.483C168.812 175.667 172.333 179.181 172.333 183.5C172.333 187.819 168.811 191.333 164.483 191.333H152V238.86C152 243.073 148.412 246.5 144 246.5Z" fill="#FFE812"/>
<path d="M199.324 218.322L191.334 195.622L183.343 218.322H199.324ZM214.15 246.396C210.814 246.396 208.262 245.042 207.492 242.862L203.531 232.492L179.136 232.491L175.172 242.867C174.406 245.043 171.855 246.396 168.519 246.396C166.758 246.396 164.998 246.015 163.434 245.292C161.228 244.275 159.108 241.476 161.538 233.932L180.674 183.564C182.022 179.734 186.116 175.787 191.327 175.668C196.552 175.786 200.647 179.734 201.998 183.572L221.126 233.916C223.56 241.479 221.44 244.279 219.235 245.294C217.668 246.015 215.911 246.396 214.15 246.396Z" fill="#FFE812"/>
<path d="M234 245.333C229.772 245.333 226.333 242.043 226.333 238V183.667C226.333 179.255 229.997 175.667 234.5 175.667C239.003 175.667 242.667 179.255 242.667 183.667V230.667H259.667C263.895 230.667 267.333 233.957 267.333 238C267.333 242.043 263.895 245.333 259.667 245.333H234Z" fill="#FFE812"/>
<path d="M278.445 246.396C274.033 246.396 270.445 242.808 270.445 238.396V183.667C270.445 179.255 274.033 175.667 278.445 175.667C282.857 175.667 286.445 179.255 286.445 183.667V200.861L308.765 178.541C309.915 177.393 311.491 176.761 313.203 176.761C315.2 176.761 317.205 177.623 318.708 179.124C320.109 180.524 320.945 182.325 321.06 184.196C321.176 186.083 320.548 187.812 319.295 189.067L301.064 207.295L320.755 233.383C322.044 235.089 322.588 237.193 322.292 239.311C321.996 241.427 320.893 243.3 319.188 244.587C317.788 245.644 316.125 246.201 314.376 246.201C311.84 246.201 309.512 245.043 307.984 243.021L289.224 218.161L286.448 220.937V238.392C286.445 242.808 282.857 246.396 278.445 246.396Z" fill="#FFE812"/>
</svg>
