<svg width="433" height="433" viewBox="0 0 433 433" fill="none" xmlns="http://www.w3.org/2000/svg">
<rect width="433" height="433" fill="white"/>
<g clip-path="url(#clip0_2_47)">
<path d="M218.51 193.682V242.285H286.058C283.092 257.916 274.191 271.151 260.841 280.05L301.575 311.653C325.308 289.749 339 257.574 339 219.354C339 210.455 338.202 201.897 336.718 193.683L218.51 193.682Z" fill="#4285F4"/>
<path d="M148.171 240.388L138.984 247.42L106.464 272.748C127.117 313.706 169.445 342.001 218.508 342.001C252.395 342.001 280.806 330.82 301.572 311.653L260.839 280.05C249.657 287.58 235.394 292.144 218.508 292.144C185.875 292.144 158.149 270.124 148.222 240.46L148.171 240.388Z" fill="#34A853"/>
<path d="M106.464 160.254C97.9072 177.138 93.0014 196.192 93.0014 216.5C93.0014 236.808 97.9072 255.862 106.464 272.746C106.464 272.86 148.226 240.344 148.226 240.344C145.716 232.814 144.232 224.828 144.232 216.499C144.232 208.169 145.716 200.183 148.226 192.653L106.464 160.254Z" fill="#FBBC05"/>
<path d="M218.51 140.972C236.995 140.972 253.425 147.361 266.547 159.683L302.488 123.745C280.695 103.437 252.399 91 218.51 91C169.447 91 127.117 119.181 106.464 160.254L148.225 192.656C158.151 162.992 185.878 140.972 218.51 140.972Z" fill="#EA4335"/>
</g>
<defs>
<clipPath id="clip0_2_47">
<rect width="246" height="251" fill="white" transform="translate(93 91)"/>
</clipPath>
</defs>
</svg>
