<svg width="1939" height="1072" xmlns="http://www.w3.org/2000/svg" xmlns:xlink="http://www.w3.org/1999/xlink" xml:space="preserve" overflow="hidden"><g transform="translate(-446 -989)"><path d="M495.538 1687.33C450.55 1432.19 825.916 1152.74 1333.94 1063.16 1841.97 973.579 2290.27 1107.79 2335.26 1362.93 2380.25 1618.07 2004.88 1897.52 1496.86 1987.1 988.832 2076.68 540.526 1942.47 495.538 1687.33Z" stroke="#000000" stroke-width="91.6667" stroke-miterlimit="8" fill-rule="evenodd"/><path d="M496.256 1691.4C451.268 1436.26 826.634 1156.81 1334.66 1067.23 1842.69 977.653 2290.99 1111.87 2335.98 1367.01 2380.97 1622.15 2005.6 1901.6 1497.58 1991.18 989.551 2080.75 541.244 1946.54 496.256 1691.4Z" stroke="#FFFFFF" stroke-width="27.5" stroke-miterlimit="8" fill-rule="evenodd"/><path d="M1065.63 1317.53C1102.97 1310.65 1140.33 1303.77 1177.71 1296.99 1188.31 1382.61 1198.91 1468.22 1209.51 1553.84 1171.42 1568.82 1134.22 1586.16 1098.07 1605.42 1087.25 1509.46 1076.44 1413.49 1065.63 1317.53ZM903.574 1347.77C940.844 1340.77 978.122 1333.75 1015.43 1326.83 1019.57 1363.26 1023.71 1399.68 1027.85 1436.11 1038.05 1432.84 1048.2 1429.44 1058.45 1426.28 1061.37 1452.16 1064.29 1478.04 1067.2 1503.92 1057.05 1508.03 1047.06 1512.43 1037 1516.72 1041.39 1555.31 1045.77 1593.9 1050.15 1632.49 1015 1653.42 981.009 1676.27 948.039 1700.52 933.218 1582.94 918.396 1465.35 903.574 1347.77ZM829.506 1351.85C844.969 1349.12 860.482 1349.09 876.046 1351.32 880.591 1386.05 885.136 1420.79 889.681 1455.52 881.553 1455.48 875.379 1456.11 871.133 1457.5 862.994 1460.17 856.591 1465.82 851.59 1474.16 846.548 1482.57 844.938 1491.54 846.227 1500.69 847.327 1508.51 851.634 1517.28 859.662 1526.37 863.078 1530.22 866.285 1534.21 869.693 1537.98 887.788 1557.94 898.137 1580.02 901.386 1604.56 906.14 1640.48 898.24 1678.58 879.76 1721.12 860.621 1765.17 837.329 1802.24 807.716 1831.04 793.519 1844.84 778.938 1853.95 763.47 1857.29 755.46 1811.86 747.449 1766.43 739.439 1721 749.867 1722.85 758.408 1721.23 765.4 1716.29 773.686 1710.43 779.704 1702 784.404 1691.65 789.075 1681.37 790.441 1671.28 788.874 1661.51 787.852 1655.14 781.306 1643.77 768.279 1627.66 746.819 1601.34 734 1568.8 727.887 1532.99 720.514 1489.8 725.362 1448.55 745.991 1412.47 765.953 1377.56 794.348 1358.05 829.506 1351.85Z" fill="#FFFFFF" fill-rule="evenodd"/><text fill="#000000" fill-opacity="0" font-family="Arial,Arial_MSFontService,sans-serif" font-size="560.302" x="724.642" y="1787.25">SH</text><path d="M1405.54 1322.03C1381.96 1325.9 1362.81 1334.77 1348.01 1348.41 1333.08 1362.17 1326.84 1376.73 1329.24 1391.81 1331.63 1406.88 1342.2 1417.94 1360.99 1425.2 1379.97 1432.53 1401.56 1434.06 1425.85 1430.54 1450.52 1426.96 1470.48 1419.5 1485.45 1407 1500.31 1394.6 1506.04 1380.65 1502.73 1365.13 1499.43 1349.62 1488.32 1337.32 1469.35 1328.85 1450.58 1320.47 1429.31 1318.13 1405.54 1322.03ZM1395.85 1251.99C1449.24 1242.58 1497.97 1246.71 1542.04 1266.72 1587.39 1287.31 1614.27 1318.67 1623.22 1356.74 1632.33 1395.46 1619.6 1428.16 1583.93 1453.71 1547.75 1479.63 1498.8 1492.22 1438.88 1500.17 1379.36 1508.07 1327.79 1508.9 1283.41 1495.3 1239.95 1481.97 1216.15 1456.98 1211.47 1420.26 1206.75 1383.17 1222.01 1347 1258.22 1314.26 1293.59 1282.27 1339.53 1261.92 1395.85 1251.99Z" fill="#FFFFFF" fill-rule="evenodd"/><text fill="#000000" fill-opacity="0" font-family="Arial,Arial_MSFontService,sans-serif" font-size="258.694" x="1210.64" y="1473.53">O</text><path d="M1729.45 1201.23C1761.99 1195.81 1794.53 1190.48 1827.06 1185.12 1834.6 1219.03 1842.15 1252.94 1849.7 1286.85 1825.51 1287.59 1801.26 1288.09 1777 1289.28 1757.28 1290.24 1748.63 1295.8 1751.06 1306.09 1752.49 1312.14 1755.83 1316.34 1761.13 1318.58 1766.44 1320.82 1775.09 1322.11 1787.2 1322.03 1808.3 1321.88 1829.38 1322.46 1850.42 1322.75 1856.25 1348.78 1862.08 1374.82 1867.91 1400.86 1842.73 1397.95 1817.52 1394.79 1792.15 1392.83 1781.8 1392.04 1774.77 1392.64 1771 1394.71 1767.23 1396.78 1766.02 1400.66 1767.37 1406.35 1768.9 1412.79 1772.11 1417.29 1777.06 1419.76 1782.03 1422.24 1791.3 1424.44 1805 1426.1 1831.29 1429.29 1857.35 1433.77 1883.38 1438.13 1890.88 1471.86 1898.39 1505.6 1905.9 1539.33 1875.19 1529.92 1844.16 1521.47 1812.82 1514.34 1768.61 1504.29 1732.77 1491.09 1705.26 1473.57 1678.38 1456.44 1661.51 1435.37 1655.16 1408.58 1646.8 1373.27 1638.44 1337.97 1630.08 1302.67 1623.96 1276.8 1629.89 1255.56 1647.17 1237.97 1664.69 1220.16 1691.83 1207.5 1729.45 1201.23ZM1986.79 1147.79C2002.25 1145.06 2018.02 1145.44 2034.03 1149.41 2041.84 1194.11 2049.66 1238.81 2057.47 1283.52 2048.74 1280.11 2042.24 1278.2 2037.84 1278.2 2029.4 1278.21 2022.99 1281.99 2018.11 1289.22 2013.28 1296.38 2012.02 1305.2 2013.96 1315.51 2015.61 1324.33 2020.83 1335.88 2030.18 1350.01 2034.23 1356.13 2037.96 1362.5 2042 1368.73 2064.21 1402.95 2076.63 1436.98 2082.1 1467.9 2090.1 1513.15 2084.63 1547.36 2063.54 1567.03 2043.21 1586 2013.73 1586.02 1975.11 1571.52 1956.56 1564.55 1937.3 1553.82 1917 1540.1 1909.34 1505.41 1901.69 1470.71 1894.04 1436.01 1906.63 1444.32 1916.9 1449.92 1925.44 1451.61 1935.45 1453.59 1943.11 1452.62 1948.62 1448.36 1954.16 1444.07 1955.88 1437.33 1954.05 1428.51 1952.85 1422.77 1945.35 1409.05 1930.24 1388.74 1906.79 1357.38 1892.11 1327.63 1885.85 1298.66 1878.29 1263.72 1884.78 1232.68 1904.4 1203.71 1924.84 1173.54 1951.63 1153.99 1986.79 1147.79Z" fill="#FFFFFF" fill-rule="evenodd"/><text fill="#000000" fill-opacity="0" font-family="Arial,Arial_MSFontService,sans-serif" font-size="435.848" x="1627.74" y="1527.4">ES</text><path d="M1062.96 1658.72C1121.79 1635.37 1181.87 1614.97 1242.89 1597.94 1259.29 1702.75 1275.68 1807.55 1292.08 1912.36 1252.35 1915.27 1212.53 1916.83 1172.72 1917.07 1161.03 1845.23 1149.33 1773.38 1137.64 1701.54 1124.28 1728.99 1111.55 1755.87 1097.37 1780.92 1105.86 1779.38 1114.34 1777.78 1122.85 1776.24 1126.1 1796.04 1129.36 1815.84 1132.61 1835.64 1078.25 1841.09 1024.13 1845.63 970.303 1849.15 970.303 1849.15 970.303 1849.15 970.303 1849.15 1006.35 1797.81 1034.48 1731.57 1062.96 1658.72Z" fill="#FFFFFF" fill-rule="evenodd"/><text fill="#000000" fill-opacity="0" font-family="Arial,Arial_MSFontService,sans-serif" font-size="319.133" x="970.303" y="1877.18">4</text><path d="M1303.17 1582.26C1344.94 1572.19 1387.11 1563.67 1429.52 1556.73 1440.41 1631.31 1451.3 1705.88 1462.18 1780.46 1467.11 1814.18 1459.39 1844.43 1438.11 1870.23 1417.02 1895.8 1388.09 1911.43 1350.73 1915.28 1339.79 1916.41 1326.71 1915.72 1311.47 1913.43 1306.72 1882.91 1301.98 1852.38 1297.23 1821.86 1303.74 1823.01 1309.56 1823.29 1314.71 1822.58 1331.21 1820.32 1337.89 1808.87 1334.76 1788.42 1324.23 1719.7 1313.7 1650.98 1303.17 1582.26Z" fill="#FFFFFF" fill-rule="evenodd"/><text fill="#000000" fill-opacity="0" font-family="Arial,Arial_MSFontService,sans-serif" font-size="359.081" x="1297.23" y="1870.93">J</text><path d="M1677.8 1614.43C1651.83 1617.13 1630.57 1626.57 1614.21 1642.92 1597.68 1659.45 1591.13 1678.26 1593.88 1698.47 1596.62 1718.68 1607.84 1734.52 1627.96 1744.71 1647.82 1754.76 1670.19 1756.94 1695.14 1750.92 1720.44 1744.83 1740.67 1732.79 1757.03 1716.51 1773.17 1700.45 1780.24 1684.09 1778.29 1667.12 1776.34 1650.15 1765.78 1636.75 1746.36 1626.72 1726.61 1616.53 1703.93 1611.72 1677.8 1614.43ZM1670.51 1527C1731.92 1526.01 1785.32 1543.55 1832.25 1568.42 1877.07 1592.17 1900.93 1616.39 1903.5 1646.06 1906.11 1676.23 1887.56 1707.75 1850.01 1745.25 1811.03 1784.17 1765.11 1818.89 1706.26 1838.51 1647.81 1858 1594.39 1854.64 1547.34 1830.98 1499.18 1806.75 1472.16 1768.72 1465.17 1720.6 1458.11 1672 1473.59 1626.77 1513.51 1587.5 1552.76 1548.91 1605.72 1528.04 1670.51 1527Z" fill="#FFFFFF" fill-rule="evenodd"/><text fill="#000000" fill-opacity="0" font-family="Arial,Arial_MSFontService,sans-serif" font-size="324.23" x="1463.52" y="1810.66">O</text></g></svg>