<svg width="90" height="79" viewBox="0 0 90 79" fill="none" xmlns="http://www.w3.org/2000/svg">
<path d="M44.8774 78.526C44.1674 78.527 43.4784 78.293 42.8274 77.833C30.6504 69.121 21.3114 61.162 13.4294 52.778C9.14043 48.217 5.81443 43.807 3.26143 39.297C-1.50457 30.882 -1.05057 22.243 4.64643 12.891C8.62543 6.36501 14.3084 2.38701 21.5394 1.06901C22.9394 0.815012 24.3574 0.687012 25.7584 0.687012C33.4034 0.687012 40.4944 4.53601 44.8864 10.902C45.7354 9.67301 46.6534 8.56101 47.6534 7.55101C51.9504 3.21201 58.0024 0.723011 64.2574 0.723011C69.6664 0.723011 74.8854 2.57401 78.9514 5.93401C85.8694 11.648 89.4864 19.167 89.7014 28.283C89.7984 32.453 88.1374 36.137 86.6794 38.881C83.2154 45.401 78.4694 50.644 74.2834 54.912C66.8304 62.503 57.9534 69.94 47.1444 77.65L47.0774 77.7C46.7204 77.969 45.9774 78.526 44.8774 78.526ZM25.7574 5.71201C24.6554 5.71201 23.5384 5.81301 22.4364 6.01301C16.6794 7.06201 12.1374 10.256 8.93843 15.505C4.20943 23.268 3.79443 30.041 7.63443 36.821C9.98743 40.978 13.0794 45.071 17.0894 49.337C24.5524 57.273 33.3964 64.844 44.8604 73.106C55.1494 65.722 63.6004 58.619 70.6944 51.392C74.6284 47.381 79.0764 42.477 82.2404 36.523C83.4834 34.182 84.7464 31.386 84.6774 28.4C84.4974 20.808 81.4934 14.552 75.7504 9.80801C72.5824 7.19001 68.5004 5.74801 64.2564 5.74801C59.3324 5.74801 54.5814 7.69401 51.2224 11.087C49.6264 12.697 48.3264 14.58 47.1304 17.014C46.7144 17.86 45.8604 18.402 44.9174 18.417C44.9034 18.418 44.8904 18.418 44.8764 18.418C43.9484 18.418 43.0974 17.907 42.6594 17.088C42.3524 16.516 42.1674 16.164 41.9794 15.794C38.6884 9.49301 32.6164 5.71201 25.7574 5.71201Z" fill="#454B53"/>
</svg>
