<svg width="90" height="79" viewBox="0 0 90 79" fill="none" xmlns="http://www.w3.org/2000/svg">
  <defs>
    <linearGradient id="myGradient" gradientTransform="rotate(90)">
      <stop offset="0%"   stop-color="#6ECCAF"/>
      <stop offset="50%"  stop-color="#ADE792"/>
      <stop offset="90%"  stop-color="#E9FFC2"/>
      <stop offset="100%" stop-color="#FDFFAE"/>
    </linearGradient>
  </defs>
<path d="M45.254 15.905C46.508 13.354 47.957 11.194 49.815 9.31901C57.227 1.83301 69.59 1.14501 77.729 7.87001C84.135 13.162 87.372 20.059 87.567 28.342C87.645 31.706 86.393 34.774 84.838 37.701C81.737 43.536 77.46 48.468 72.866 53.152C64.665 61.505 55.579 68.816 46.063 75.604C45.643 75.91 45.322 76.252 44.659 75.783C34.285 68.361 24.397 60.373 15.638 51.057C11.904 47.085 8.527 42.83 5.825 38.059C1.143 29.789 2.5 21.864 7.17 14.197C10.654 8.48001 15.687 4.75801 22.366 3.54001C31.466 1.89401 40.238 6.31101 44.601 14.663C44.781 15.019 44.96 15.355 45.254 15.905Z" fill="url(#myGradient)"/>
<path d="M44.8774 78.526C44.1674 78.527 43.4784 78.293 42.8274 77.833C30.6504 69.121 21.3114 61.162 13.4294 52.778C9.14043 48.217 5.81443 43.807 3.26143 39.297C-1.50457 30.882 -1.05057 22.243 4.64643 12.891C8.62543 6.36501 14.3084 2.38701 21.5394 1.06901C22.9394 0.815012 24.3574 0.687012 25.7584 0.687012C33.4034 0.687012 40.4944 4.53601 44.8864 10.902C45.7354 9.67301 46.6534 8.56101 47.6534 7.55101C51.9504 3.21201 58.0024 0.723011 64.2574 0.723011C69.6664 0.723011 74.8854 2.57401 78.9514 5.93401C85.8694 11.648 89.4864 19.167 89.7014 28.283C89.7984 32.453 88.1374 36.137 86.6794 38.881C83.2154 45.401 78.4694 50.644 74.2834 54.912C66.8304 62.503 57.9534 69.94 47.1444 77.65L47.0774 77.7C46.7204 77.969 45.9774 78.526 44.8774 78.526ZM25.7574 5.71201C24.6554 5.71201 23.5384 5.81301 22.4364 6.01301C16.6794 7.06201 12.1374 10.256 8.93843 15.505C4.20943 23.268 3.79443 30.041 7.63443 36.821C9.98743 40.978 13.0794 45.071 17.0894 49.337C24.5524 57.273 33.3964 64.844 44.8604 73.106C55.1494 65.722 63.6004 58.619 70.6944 51.392C74.6284 47.381 79.0764 42.477 82.2404 36.523C83.4834 34.182 84.7464 31.386 84.6774 28.4C84.4974 20.808 81.4934 14.552 75.7504 9.80801C72.5824 7.19001 68.5004 5.74801 64.2564 5.74801C59.3324 5.74801 54.5814 7.69401 51.2224 11.087C49.6264 12.697 48.3264 14.58 47.1304 17.014C46.7144 17.86 45.8604 18.402 44.9174 18.417C44.9034 18.418 44.8904 18.418 44.8764 18.418C43.9484 18.418 43.0974 17.907 42.6594 17.088C42.3524 16.516 42.1674 16.164 41.9794 15.794C38.6884 9.49301 32.6164 5.71201 25.7574 5.71201Z" fill="#333"/>
<path d="M69.848 40.168C69.291 40.168 68.731 39.983 68.264 39.605C67.188 38.73 67.025 37.148 67.9 36.071C69.731 33.819 72.491 27.149 71.608 23.571C71.32 22.407 70.735 22.023 70.258 21.82C68.983 21.274 68.391 19.798 68.936 18.522C69.481 17.246 70.96 16.655 72.233 17.199C74.411 18.13 75.88 19.916 76.486 22.366C77.887 28.039 74.237 36.242 71.799 39.241C71.303 39.851 70.578 40.168 69.848 40.168Z" fill="white"/>
<path d="M65.1 47.979C64.43 47.979 63.8 47.719 63.33 47.25C62.85 46.77 62.59 46.14 62.59 45.47C62.59 44.81 62.86 44.16 63.33 43.69C64.26 42.76 65.939 42.76 66.88 43.69C67.35 44.161 67.619 44.81 67.619 45.47C67.619 46.14 67.349 46.77 66.88 47.25C66.4 47.72 65.77 47.979 65.1 47.979Z" fill="white"/>
</svg>
